<svg width="248" height="430" viewBox="0 0 248 430" fill="none" xmlns="http://www.w3.org/2000/svg">
<path fill-rule="evenodd" clip-rule="evenodd" d="M246.461 317.801C241.397 309.62 230.116 306.017 220.266 309.435C217.749 310.307 204.854 320.538 180.319 341.126L144.087 371.529L144.087 191.506V11.4828L141.562 7.86232C137.903 2.61714 132.089 0 124.098 0C116.107 0 110.293 2.61714 106.634 7.86232L104.108 11.4828V191.506L104.108 371.529L67.8767 341.126C43.3414 320.538 30.4461 310.307 27.9294 309.435C19.6337 306.556 9.65083 308.885 3.80085 315.064C1.55601 317.435 0.716469 319.328 0.374646 322.792C-0.587857 332.543 -3.87317 329.147 55.4432 379.709C85.2208 405.091 111.427 426.766 113.68 427.875C119.435 430.708 128.76 430.708 134.515 427.875C139.688 425.329 245.656 335.121 247.022 332.101C248.548 328.729 248.233 320.661 246.461 317.801Z" fill="black"/>
</svg>
