<svg width="24" height="14" viewBox="0 0 24 14" fill="none" xmlns="http://www.w3.org/2000/svg">
<path fill-rule="evenodd" clip-rule="evenodd" d="M1.1272 0.0501895C0.705957 0.187567 0.322802 0.528733 0.114552 0.951857C0.0151703 1.15381 0 1.25 0 1.67782C0 2.12776 0.0116947 2.19361 0.133479 2.42929C0.241973 2.63918 1.2673 3.6888 5.60388 8.02913C10.0362 12.4652 10.9888 13.3967 11.2238 13.5242C11.4924 13.67 11.532 13.6778 12 13.6778C12.4681 13.6778 12.5075 13.67 12.7766 13.524C13.0124 13.3961 13.9593 12.4694 18.4153 8.00541C22.6644 3.74877 23.7942 2.59212 23.8853 2.40581C23.9847 2.20221 24 2.10541 24 1.67782C24 1.22812 23.9882 1.16128 23.8654 0.919074C23.7005 0.593642 23.4261 0.321516 23.0841 0.144358C22.8506 0.0233244 22.7808 0.0105026 22.3562 0.0105026C21.5331 0.0105026 22.0051 -0.397591 16.6849 4.91336L12 9.59017L7.31507 4.91336C2.05479 -0.337803 2.46914 0.0255788 1.71429 0.00157881C1.478 -0.00593587 1.23842 0.0138843 1.1272 0.0501895Z" fill="black"/>
</svg>
