<svg width="147" height="225" viewBox="0 0 147 225" fill="none" xmlns="http://www.w3.org/2000/svg">
<path fill-rule="evenodd" clip-rule="evenodd" d="M20.327 0.896859C15.261 2.76786 9.57603 7.03486 6.13003 11.5529C-8.91097 31.2729 5.47202 60.1739 30.327 60.1739C38.753 60.1739 44.604 57.8179 51.139 51.7939C57.43 45.9949 60.262 39.1559 60.275 29.7279C60.287 21.0299 58.129 15.2819 52.519 9.07286C46.984 2.94486 40.8 0.304859 31.327 0.0248594C26.927 -0.105141 21.977 0.287859 20.327 0.896859ZM21.223 83.0859C-5.00097 91.6789 -7.41897 127.588 17.404 139.805C24.419 143.258 36.235 143.258 43.25 139.805C49.517 136.721 54.82 131.418 57.904 125.151C61.357 118.136 61.357 106.32 57.904 99.3049C54.829 93.0569 49.501 87.7169 43.392 84.7599C37.552 81.9319 27.142 81.1459 21.223 83.0859ZM22.151 165.107C8.36302 169.617 0.368025 180.488 0.368025 194.728C0.368025 206.747 6.18202 216.492 16.497 221.761C20.574 223.843 22.731 224.228 30.327 224.228C37.923 224.228 40.08 223.843 44.157 221.761C54.48 216.488 60.292 206.74 60.275 194.728C60.262 185.3 57.43 178.461 51.139 172.662C42.992 165.152 31.317 162.11 22.151 165.107Z" fill="#898888"/>
<path fill-rule="evenodd" clip-rule="evenodd" d="M106.327 0.896859C101.261 2.76786 95.576 7.03486 92.13 11.5529C77.089 31.2729 91.472 60.1739 116.327 60.1739C124.753 60.1739 130.604 57.8179 137.139 51.7939C143.43 45.9949 146.262 39.1559 146.275 29.7279C146.287 21.0299 144.129 15.2819 138.519 9.07286C132.984 2.94486 126.8 0.304859 117.327 0.0248594C112.927 -0.105141 107.977 0.287859 106.327 0.896859ZM107.223 83.0859C80.999 91.6789 78.581 127.588 103.404 139.805C110.419 143.258 122.235 143.258 129.25 139.805C135.517 136.721 140.82 131.418 143.904 125.151C147.357 118.136 147.357 106.32 143.904 99.3049C140.829 93.0569 135.501 87.7169 129.392 84.7599C123.552 81.9319 113.142 81.1459 107.223 83.0859ZM108.151 165.107C94.363 169.617 86.368 180.488 86.368 194.728C86.368 206.747 92.182 216.492 102.497 221.761C106.574 223.843 108.731 224.228 116.327 224.228C123.923 224.228 126.08 223.843 130.157 221.761C140.48 216.488 146.292 206.74 146.275 194.728C146.262 185.3 143.43 178.461 137.139 172.662C128.992 165.152 117.317 162.11 108.151 165.107Z" fill="#898888"/>
</svg>
